<svg xmlns="http://www.w3.org/2000/svg" version="1.1" xmlns:xlink="http://www.w3.org/1999/xlink" xmlns:svgjs="http://svgjs.dev/svgjs" width="1440" height="560" preserveAspectRatio="none" viewBox="0 0 1440 560"><g mask="url(&quot;#SvgjsMask1015&quot;)" fill="none"><rect width="1440" height="560" x="0" y="0" fill="#0e2a47"></rect><path d="M332.4470193556671 90.3584686104549L426.91306524834306 78.75949664528909 415.3140932831772-15.706549247386832 320.8480473905013-4.1075772822210155z" fill="rgba(28, 83, 142, 0.4)" class="triangle-float3"></path><path d="M1122.229926875239 321.170701688765L1140.1573531924344 175.1635311995384 994.1501827032076 157.23610488234314 976.2227563860124 303.2432753715698z" fill="rgba(28, 83, 142, 0.4)" class="triangle-float1"></path><path d="M626.458,613.095C657.982,613.069,682.068,587.61,696.694,559.684C710.166,533.96,710.474,504.128,696.999,478.406C682.391,450.523,657.929,426.257,626.458,425.615C594.088,424.954,565.796,446.754,550.748,475.421C536.71,502.164,541.467,533.334,556.021,559.8C571.227,587.452,594.901,613.121,626.458,613.095" fill="rgba(28, 83, 142, 0.4)" class="triangle-float3"></path><path d="M1223.275,254.505C1241.623,255.435,1262.044,253.884,1272.161,238.548C1283.067,222.016,1280.993,199.847,1270.351,183.144C1260.43,167.572,1241.735,161.432,1223.275,161.82C1205.576,162.192,1188.252,169.661,1179.508,185.054C1170.859,200.281,1172.942,219.177,1182.279,233.992C1191.01,247.847,1206.919,253.676,1223.275,254.505" fill="rgba(28, 83, 142, 0.4)" class="triangle-float3"></path><path d="M1202.07 398.05 a96.73 96.73 0 1 0 193.46 0 a96.73 96.73 0 1 0 -193.46 0z" fill="rgba(28, 83, 142, 0.4)" class="triangle-float3"></path><path d="M536.8669176030393 42.875160694351905L378.2508865062263 9.160282498668074 344.53600831054246 167.776313595481 503.15203940735546 201.49119179116485z" fill="rgba(28, 83, 142, 0.4)" class="triangle-float2"></path><path d="M1357.9822627778265 207.66747900933842L1476.7142358550534 133.47550794165588 1402.522264787371 14.74353486442891 1283.790291710144 88.93550593211144z" fill="rgba(28, 83, 142, 0.4)" class="triangle-float1"></path><path d="M99.28100787571995 146.12887160340432L199.8769637800179 144.3729626615787 198.12105483819224 43.77700675728076 97.52509893389431 45.5329156991064z" fill="rgba(28, 83, 142, 0.4)" class="triangle-float1"></path><path d="M553.84 49.73 a107.82 107.82 0 1 0 215.64 0 a107.82 107.82 0 1 0 -215.64 0z" fill="rgba(28, 83, 142, 0.4)" class="triangle-float2"></path><path d="M951.9644176231266 402.52754716070757L973.3785123821442 537.7308203808501 1108.5817856022868 516.3167256218325 1087.1676908432692 381.11345240168987z" fill="rgba(28, 83, 142, 0.4)" class="triangle-float3"></path><path d="M849.4 193.94 a122.54 122.54 0 1 0 245.08 0 a122.54 122.54 0 1 0 -245.08 0z" fill="rgba(28, 83, 142, 0.4)" class="triangle-float3"></path><path d="M96.51 434.57 a121.32 121.32 0 1 0 242.64 0 a121.32 121.32 0 1 0 -242.64 0z" fill="rgba(28, 83, 142, 0.4)" class="triangle-float1"></path><path d="M581.7110170486529 325.6204636310208L493.55850153043895 216.76117287616643 472.85172629379855 413.7729791492348z" fill="rgba(28, 83, 142, 0.4)" class="triangle-float1"></path></g><defs><mask id="SvgjsMask1015"><rect width="1440" height="560" fill="#ffffff"></rect></mask><style>
                @keyframes float1 {
                    0%{transform: translate(0, 0)}
                    50%{transform: translate(-10px, 0)}
                    100%{transform: translate(0, 0)}
                }

                .triangle-float1 {
                    animation: float1 5s infinite;
                }

                @keyframes float2 {
                    0%{transform: translate(0, 0)}
                    50%{transform: translate(-5px, -5px)}
                    100%{transform: translate(0, 0)}
                }

                .triangle-float2 {
                    animation: float2 4s infinite;
                }

                @keyframes float3 {
                    0%{transform: translate(0, 0)}
                    50%{transform: translate(0, -10px)}
                    100%{transform: translate(0, 0)}
                }

                .triangle-float3 {
                    animation: float3 6s infinite;
                }
            </style></defs></svg>