<svg xmlns="http://www.w3.org/2000/svg" version="1.1" xmlns:xlink="http://www.w3.org/1999/xlink" xmlns:svgjs="http://svgjs.dev/svgjs" width="1440" height="560" preserveAspectRatio="none" viewBox="0 0 1440 560"><g mask="url(&quot;#SvgjsMask1015&quot;)" fill="none"><rect width="1440" height="560" x="0" y="0" fill="rgba(232, 233, 234, 1)"></rect><path d="M48.84 19.45L101.07 19.45L101.07 71.68L48.84 71.68z" stroke="rgba(193, 212, 46, 1)"></path><path d="M414.66 454.36 a52.1 52.1 0 1 0 104.2 0 a52.1 52.1 0 1 0 -104.2 0z" fill="rgba(193, 212, 46, 1)"></path><path d="M343.84 245.87L394.95 245.87L394.95 296.98L343.84 296.98z" stroke="rgba(5, 51, 82, 1)"></path><path d="M247.89 268.23 a5.85 5.85 0 1 0 11.7 0 a5.85 5.85 0 1 0 -11.7 0z" fill="rgba(193, 212, 46, 1)"></path><path d="M1153.6 528.8a6.6 6.6 0 1 0 13.14 1.24z" stroke="rgba(5, 51, 82, 1)"></path><path d="M1289.69 370.47 a24.54 24.54 0 1 0 49.08 0 a24.54 24.54 0 1 0 -49.08 0z" fill="rgba(193, 212, 46, 1)"></path><path d="M1122.36 362.93L1167.62 362.93L1167.62 376.16L1122.36 376.16z" stroke="rgba(5, 51, 82, 1)"></path><path d="M831.92 462.68L857.34 462.68L857.34 498.19L831.92 498.19z" fill="rgba(5, 51, 82, 1)"></path><path d="M777.87 87.17 a35.85 35.85 0 1 0 71.7 0 a35.85 35.85 0 1 0 -71.7 0z" stroke="rgba(193, 212, 46, 1)"></path><path d="M620.56 430.35 a19.02 19.02 0 1 0 38.04 0 a19.02 19.02 0 1 0 -38.04 0z" stroke="rgba(193, 212, 46, 1)"></path><path d="M361.32 262.04L383.35 262.04L383.35 284.07L361.32 284.07z" stroke="rgba(193, 212, 46, 1)"></path><path d="M1051.41 489.66a49.13 49.13 0 1 0-97.4-12.97z" stroke="rgba(193, 212, 46, 1)"></path><path d="M1020.45 31.25 a49.46 49.46 0 1 0 98.92 0 a49.46 49.46 0 1 0 -98.92 0z" stroke="rgba(5, 51, 82, 1)"></path><path d="M193.71 149.67 a9.59 9.59 0 1 0 19.18 0 a9.59 9.59 0 1 0 -19.18 0z" fill="rgba(5, 51, 82, 1)"></path><path d="M1273.29 0.48 a30.35 30.35 0 1 0 60.7 0 a30.35 30.35 0 1 0 -60.7 0z" fill="rgba(5, 51, 82, 1)"></path><path d="M899.59 255.1 a14.06 14.06 0 1 0 28.12 0 a14.06 14.06 0 1 0 -28.12 0z" stroke="rgba(193, 212, 46, 1)"></path><path d="M187.29 359.46 a42.11 42.11 0 1 0 84.22 0 a42.11 42.11 0 1 0 -84.22 0z" stroke="rgba(193, 212, 46, 1)"></path><path d="M1127.46 93.8 a13.26 13.26 0 1 0 26.52 0 a13.26 13.26 0 1 0 -26.52 0z" fill="rgba(5, 51, 82, 1)"></path><path d="M1397.52 296.77L1419.93 296.77L1419.93 319.18L1397.52 319.18z" fill="rgba(193, 212, 46, 1)"></path><path d="M305.92 398.31a21.97 21.97 0 1 0 12.58 42.1z" fill="rgba(5, 51, 82, 1)"></path><path d="M1017.06 420.4L1042.76 420.4L1042.76 430.59L1017.06 430.59z" stroke="rgba(5, 51, 82, 1)"></path><path d="M1231.54 185.51a46.55 46.55 0 1 0 48.02 79.75z" fill="rgba(193, 212, 46, 1)"></path><path d="M1020.54 105.68a15.11 15.11 0 1 0 29.92 4.28z" fill="rgba(5, 51, 82, 1)"></path><path d="M727.4 23.92 a30.49 30.49 0 1 0 60.98 0 a30.49 30.49 0 1 0 -60.98 0z" stroke="rgba(193, 212, 46, 1)"></path><path d="M1176.53 339.73L1192.2 339.73L1192.2 355.4L1176.53 355.4z" fill="rgba(5, 51, 82, 1)"></path><path d="M139.79 28.66L162.49 28.66L162.49 43.66L139.79 43.66z" fill="rgba(5, 51, 82, 1)"></path><path d="M1388.88 239.05L1427.76 239.05L1427.76 257.11L1388.88 257.11z" stroke="rgba(5, 51, 82, 1)"></path><path d="M492.38 523.11a44.3 44.3 0 1 0-59.37-65.76z" fill="rgba(5, 51, 82, 1)"></path><path d="M1.25 28.17L14.25 28.17L14.25 41.17L1.25 41.17z" stroke="rgba(5, 51, 82, 1)"></path><path d="M78.34 280.84 a45.71 45.71 0 1 0 91.42 0 a45.71 45.71 0 1 0 -91.42 0z" stroke="rgba(193, 212, 46, 1)"></path><path d="M180.29 317.34L233.25 317.34L233.25 336.57L180.29 336.57z" fill="rgba(193, 212, 46, 1)"></path><path d="M573.78 364.41L607.56 364.41L607.56 406.62L573.78 406.62z" stroke="rgba(5, 51, 82, 1)"></path><path d="M1418.11 555.07L1474.06 555.07L1474.06 611.02L1418.11 611.02z" stroke="rgba(5, 51, 82, 1)"></path></g><defs><mask id="SvgjsMask1015"><rect width="1440" height="560" fill="#ffffff"></rect></mask></defs></svg>