<svg xmlns="http://www.w3.org/2000/svg" version="1.1" xmlns:xlink="http://www.w3.org/1999/xlink" xmlns:svgjs="http://svgjs.dev/svgjs" width="1440" height="560" preserveAspectRatio="none" viewBox="0 0 1440 560"><g mask="url(&quot;#SvgjsMask1001&quot;)" fill="none"><path d="M82.6 38.35L147.56 75.85L147.56 150.85L82.6 188.35L17.65 150.85L17.65 75.85zM17.65 150.85L82.6 188.35L82.6 263.35L17.65 300.85L-47.3 263.35L-47.3 188.35zM17.65 375.85L82.6 413.35L82.6 488.35L17.65 525.85L-47.3 488.35L-47.3 413.35zM212.51 38.35L277.46 75.85L277.46 150.85L212.51 188.35L147.56 150.85L147.56 75.85zM147.56 375.85L212.51 413.35L212.51 488.35L147.56 525.85L82.6 488.35L82.6 413.35zM212.51 488.35L277.46 525.85L277.46 600.85L212.51 638.35L147.56 600.85L147.56 525.85zM277.46 150.85L342.42 188.35L342.42 263.35L277.46 300.85L212.51 263.35L212.51 188.35zM342.42 263.35L407.37 300.85L407.37 375.85L342.42 413.35L277.46 375.85L277.46 300.85zM277.46 375.85L342.42 413.35L342.42 488.35L277.46 525.85L212.51 488.35L212.51 413.35zM342.42 488.35L407.37 525.85L407.37 600.85L342.42 638.35L277.46 600.85L277.46 525.85zM472.33 263.35L537.28 300.85L537.28 375.85L472.33 413.35L407.37 375.85L407.37 300.85zM472.33 488.35L537.28 525.85L537.28 600.85L472.33 638.35L407.37 600.85L407.37 525.85zM537.28 -74.15L602.23 -36.65L602.23 38.35L537.28 75.85L472.33 38.35L472.33 -36.65zM602.23 488.35L667.19 525.85L667.19 600.85L602.23 638.35L537.28 600.85L537.28 525.85zM667.19 375.85L732.14 413.35L732.14 488.35L667.19 525.85L602.23 488.35L602.23 413.35zM862.05 38.35L927 75.85L927 150.85L862.05 188.35L797.09 150.85L797.09 75.85zM862.05 263.35L927 300.85L927 375.85L862.05 413.35L797.09 375.85L797.09 300.85zM862.05 488.35L927 525.85L927 600.85L862.05 638.35L797.09 600.85L797.09 525.85zM927 -74.15L991.96 -36.65L991.96 38.35L927 75.85L862.05 38.35L862.05 -36.65zM991.96 38.35L1056.91 75.85L1056.91 150.85L991.96 188.35L927 150.85L927 75.85zM927 375.85L991.96 413.35L991.96 488.35L927 525.85L862.05 488.35L862.05 413.35zM991.96 488.35L1056.91 525.85L1056.91 600.85L991.96 638.35L927 600.85L927 525.85zM1056.91 -74.15L1121.86 -36.65L1121.86 38.35L1056.91 75.85L991.96 38.35L991.96 -36.65zM1121.86 38.35L1186.82 75.85L1186.82 150.85L1121.86 188.35L1056.91 150.85L1056.91 75.85zM1121.86 488.35L1186.82 525.85L1186.82 600.85L1121.86 638.35L1056.91 600.85L1056.91 525.85zM1251.77 38.35L1316.72 75.85L1316.72 150.85L1251.77 188.35L1186.82 150.85L1186.82 75.85zM1251.77 263.35L1316.72 300.85L1316.72 375.85L1251.77 413.35L1186.82 375.85L1186.82 300.85zM1251.77 488.35L1316.72 525.85L1316.72 600.85L1251.77 638.35L1186.82 600.85L1186.82 525.85zM1316.73 -74.15L1381.68 -36.65L1381.68 38.35L1316.73 75.85L1251.77 38.35L1251.77 -36.65zM1316.73 150.85L1381.68 188.35L1381.68 263.35L1316.73 300.85L1251.77 263.35L1251.77 188.35zM1381.68 263.35L1446.63 300.85L1446.63 375.85L1381.68 413.35L1316.73 375.85L1316.73 300.85zM1511.59 38.35L1576.54 75.85L1576.54 150.85L1511.59 188.35L1446.63 150.85L1446.63 75.85zM1446.63 150.85L1511.59 188.35L1511.59 263.35L1446.63 300.85L1381.68 263.35L1381.68 188.35zM1446.63 375.85L1511.59 413.35L1511.59 488.35L1446.63 525.85L1381.68 488.35L1381.68 413.35zM1511.59 488.35L1576.54 525.85L1576.54 600.85L1511.59 638.35L1446.63 600.85L1446.63 525.85z" stroke="#03305d" stroke-width="2"></path><path d="M75.1 38.35 a7.5 7.5 0 1 0 15 0 a7.5 7.5 0 1 0 -15 0zM140.06 75.85 a7.5 7.5 0 1 0 15 0 a7.5 7.5 0 1 0 -15 0zM140.06 150.85 a7.5 7.5 0 1 0 15 0 a7.5 7.5 0 1 0 -15 0zM75.1 188.35 a7.5 7.5 0 1 0 15 0 a7.5 7.5 0 1 0 -15 0zM10.15 150.85 a7.5 7.5 0 1 0 15 0 a7.5 7.5 0 1 0 -15 0zM10.15 75.85 a7.5 7.5 0 1 0 15 0 a7.5 7.5 0 1 0 -15 0zM75.1 263.35 a7.5 7.5 0 1 0 15 0 a7.5 7.5 0 1 0 -15 0zM10.15 300.85 a7.5 7.5 0 1 0 15 0 a7.5 7.5 0 1 0 -15 0zM-54.8 263.35 a7.5 7.5 0 1 0 15 0 a7.5 7.5 0 1 0 -15 0zM-54.8 188.35 a7.5 7.5 0 1 0 15 0 a7.5 7.5 0 1 0 -15 0zM10.15 375.85 a7.5 7.5 0 1 0 15 0 a7.5 7.5 0 1 0 -15 0zM75.1 413.35 a7.5 7.5 0 1 0 15 0 a7.5 7.5 0 1 0 -15 0zM75.1 488.35 a7.5 7.5 0 1 0 15 0 a7.5 7.5 0 1 0 -15 0zM10.15 525.85 a7.5 7.5 0 1 0 15 0 a7.5 7.5 0 1 0 -15 0zM-54.8 488.35 a7.5 7.5 0 1 0 15 0 a7.5 7.5 0 1 0 -15 0zM-54.8 413.35 a7.5 7.5 0 1 0 15 0 a7.5 7.5 0 1 0 -15 0zM205.01 38.35 a7.5 7.5 0 1 0 15 0 a7.5 7.5 0 1 0 -15 0zM269.96 75.85 a7.5 7.5 0 1 0 15 0 a7.5 7.5 0 1 0 -15 0zM269.96 150.85 a7.5 7.5 0 1 0 15 0 a7.5 7.5 0 1 0 -15 0zM205.01 188.35 a7.5 7.5 0 1 0 15 0 a7.5 7.5 0 1 0 -15 0zM140.06 375.85 a7.5 7.5 0 1 0 15 0 a7.5 7.5 0 1 0 -15 0zM205.01 413.35 a7.5 7.5 0 1 0 15 0 a7.5 7.5 0 1 0 -15 0zM205.01 488.35 a7.5 7.5 0 1 0 15 0 a7.5 7.5 0 1 0 -15 0zM140.06 525.85 a7.5 7.5 0 1 0 15 0 a7.5 7.5 0 1 0 -15 0zM269.96 525.85 a7.5 7.5 0 1 0 15 0 a7.5 7.5 0 1 0 -15 0zM269.96 600.85 a7.5 7.5 0 1 0 15 0 a7.5 7.5 0 1 0 -15 0zM205.01 638.35 a7.5 7.5 0 1 0 15 0 a7.5 7.5 0 1 0 -15 0zM140.06 600.85 a7.5 7.5 0 1 0 15 0 a7.5 7.5 0 1 0 -15 0zM334.92 188.35 a7.5 7.5 0 1 0 15 0 a7.5 7.5 0 1 0 -15 0zM334.92 263.35 a7.5 7.5 0 1 0 15 0 a7.5 7.5 0 1 0 -15 0zM269.96 300.85 a7.5 7.5 0 1 0 15 0 a7.5 7.5 0 1 0 -15 0zM205.01 263.35 a7.5 7.5 0 1 0 15 0 a7.5 7.5 0 1 0 -15 0zM399.87 300.85 a7.5 7.5 0 1 0 15 0 a7.5 7.5 0 1 0 -15 0zM399.87 375.85 a7.5 7.5 0 1 0 15 0 a7.5 7.5 0 1 0 -15 0zM334.92 413.35 a7.5 7.5 0 1 0 15 0 a7.5 7.5 0 1 0 -15 0zM269.96 375.85 a7.5 7.5 0 1 0 15 0 a7.5 7.5 0 1 0 -15 0zM334.92 488.35 a7.5 7.5 0 1 0 15 0 a7.5 7.5 0 1 0 -15 0zM399.87 525.85 a7.5 7.5 0 1 0 15 0 a7.5 7.5 0 1 0 -15 0zM399.87 600.85 a7.5 7.5 0 1 0 15 0 a7.5 7.5 0 1 0 -15 0zM334.92 638.35 a7.5 7.5 0 1 0 15 0 a7.5 7.5 0 1 0 -15 0zM464.83 263.35 a7.5 7.5 0 1 0 15 0 a7.5 7.5 0 1 0 -15 0zM529.78 300.85 a7.5 7.5 0 1 0 15 0 a7.5 7.5 0 1 0 -15 0zM529.78 375.85 a7.5 7.5 0 1 0 15 0 a7.5 7.5 0 1 0 -15 0zM464.83 413.35 a7.5 7.5 0 1 0 15 0 a7.5 7.5 0 1 0 -15 0zM464.83 488.35 a7.5 7.5 0 1 0 15 0 a7.5 7.5 0 1 0 -15 0zM529.78 525.85 a7.5 7.5 0 1 0 15 0 a7.5 7.5 0 1 0 -15 0zM529.78 600.85 a7.5 7.5 0 1 0 15 0 a7.5 7.5 0 1 0 -15 0zM464.83 638.35 a7.5 7.5 0 1 0 15 0 a7.5 7.5 0 1 0 -15 0zM529.78 -74.15 a7.5 7.5 0 1 0 15 0 a7.5 7.5 0 1 0 -15 0zM594.73 -36.65 a7.5 7.5 0 1 0 15 0 a7.5 7.5 0 1 0 -15 0zM594.73 38.35 a7.5 7.5 0 1 0 15 0 a7.5 7.5 0 1 0 -15 0zM529.78 75.85 a7.5 7.5 0 1 0 15 0 a7.5 7.5 0 1 0 -15 0zM464.83 38.35 a7.5 7.5 0 1 0 15 0 a7.5 7.5 0 1 0 -15 0zM464.83 -36.65 a7.5 7.5 0 1 0 15 0 a7.5 7.5 0 1 0 -15 0zM594.73 488.35 a7.5 7.5 0 1 0 15 0 a7.5 7.5 0 1 0 -15 0zM659.69 525.85 a7.5 7.5 0 1 0 15 0 a7.5 7.5 0 1 0 -15 0zM659.69 600.85 a7.5 7.5 0 1 0 15 0 a7.5 7.5 0 1 0 -15 0zM594.73 638.35 a7.5 7.5 0 1 0 15 0 a7.5 7.5 0 1 0 -15 0zM659.69 375.85 a7.5 7.5 0 1 0 15 0 a7.5 7.5 0 1 0 -15 0zM724.64 413.35 a7.5 7.5 0 1 0 15 0 a7.5 7.5 0 1 0 -15 0zM724.64 488.35 a7.5 7.5 0 1 0 15 0 a7.5 7.5 0 1 0 -15 0zM594.73 413.35 a7.5 7.5 0 1 0 15 0 a7.5 7.5 0 1 0 -15 0zM854.55 38.35 a7.5 7.5 0 1 0 15 0 a7.5 7.5 0 1 0 -15 0zM919.5 75.85 a7.5 7.5 0 1 0 15 0 a7.5 7.5 0 1 0 -15 0zM919.5 150.85 a7.5 7.5 0 1 0 15 0 a7.5 7.5 0 1 0 -15 0zM854.55 188.35 a7.5 7.5 0 1 0 15 0 a7.5 7.5 0 1 0 -15 0zM789.59 150.85 a7.5 7.5 0 1 0 15 0 a7.5 7.5 0 1 0 -15 0zM789.59 75.85 a7.5 7.5 0 1 0 15 0 a7.5 7.5 0 1 0 -15 0zM854.55 263.35 a7.5 7.5 0 1 0 15 0 a7.5 7.5 0 1 0 -15 0zM919.5 300.85 a7.5 7.5 0 1 0 15 0 a7.5 7.5 0 1 0 -15 0zM919.5 375.85 a7.5 7.5 0 1 0 15 0 a7.5 7.5 0 1 0 -15 0zM854.55 413.35 a7.5 7.5 0 1 0 15 0 a7.5 7.5 0 1 0 -15 0zM789.59 375.85 a7.5 7.5 0 1 0 15 0 a7.5 7.5 0 1 0 -15 0zM789.59 300.85 a7.5 7.5 0 1 0 15 0 a7.5 7.5 0 1 0 -15 0zM854.55 488.35 a7.5 7.5 0 1 0 15 0 a7.5 7.5 0 1 0 -15 0zM919.5 525.85 a7.5 7.5 0 1 0 15 0 a7.5 7.5 0 1 0 -15 0zM919.5 600.85 a7.5 7.5 0 1 0 15 0 a7.5 7.5 0 1 0 -15 0zM854.55 638.35 a7.5 7.5 0 1 0 15 0 a7.5 7.5 0 1 0 -15 0zM789.59 600.85 a7.5 7.5 0 1 0 15 0 a7.5 7.5 0 1 0 -15 0zM789.59 525.85 a7.5 7.5 0 1 0 15 0 a7.5 7.5 0 1 0 -15 0zM919.5 -74.15 a7.5 7.5 0 1 0 15 0 a7.5 7.5 0 1 0 -15 0zM984.46 -36.65 a7.5 7.5 0 1 0 15 0 a7.5 7.5 0 1 0 -15 0zM984.46 38.35 a7.5 7.5 0 1 0 15 0 a7.5 7.5 0 1 0 -15 0zM854.55 -36.65 a7.5 7.5 0 1 0 15 0 a7.5 7.5 0 1 0 -15 0zM1049.41 75.85 a7.5 7.5 0 1 0 15 0 a7.5 7.5 0 1 0 -15 0zM1049.41 150.85 a7.5 7.5 0 1 0 15 0 a7.5 7.5 0 1 0 -15 0zM984.46 188.35 a7.5 7.5 0 1 0 15 0 a7.5 7.5 0 1 0 -15 0zM984.46 413.35 a7.5 7.5 0 1 0 15 0 a7.5 7.5 0 1 0 -15 0zM984.46 488.35 a7.5 7.5 0 1 0 15 0 a7.5 7.5 0 1 0 -15 0zM1049.41 525.85 a7.5 7.5 0 1 0 15 0 a7.5 7.5 0 1 0 -15 0zM1049.41 600.85 a7.5 7.5 0 1 0 15 0 a7.5 7.5 0 1 0 -15 0zM984.46 638.35 a7.5 7.5 0 1 0 15 0 a7.5 7.5 0 1 0 -15 0zM1049.41 -74.15 a7.5 7.5 0 1 0 15 0 a7.5 7.5 0 1 0 -15 0zM1114.36 -36.65 a7.5 7.5 0 1 0 15 0 a7.5 7.5 0 1 0 -15 0zM1114.36 38.35 a7.5 7.5 0 1 0 15 0 a7.5 7.5 0 1 0 -15 0zM1179.32 75.85 a7.5 7.5 0 1 0 15 0 a7.5 7.5 0 1 0 -15 0zM1179.32 150.85 a7.5 7.5 0 1 0 15 0 a7.5 7.5 0 1 0 -15 0zM1114.36 188.35 a7.5 7.5 0 1 0 15 0 a7.5 7.5 0 1 0 -15 0zM1114.36 488.35 a7.5 7.5 0 1 0 15 0 a7.5 7.5 0 1 0 -15 0zM1179.32 525.85 a7.5 7.5 0 1 0 15 0 a7.5 7.5 0 1 0 -15 0zM1179.32 600.85 a7.5 7.5 0 1 0 15 0 a7.5 7.5 0 1 0 -15 0zM1114.36 638.35 a7.5 7.5 0 1 0 15 0 a7.5 7.5 0 1 0 -15 0zM1244.27 38.35 a7.5 7.5 0 1 0 15 0 a7.5 7.5 0 1 0 -15 0zM1309.22 75.85 a7.5 7.5 0 1 0 15 0 a7.5 7.5 0 1 0 -15 0zM1309.22 150.85 a7.5 7.5 0 1 0 15 0 a7.5 7.5 0 1 0 -15 0zM1244.27 188.35 a7.5 7.5 0 1 0 15 0 a7.5 7.5 0 1 0 -15 0zM1244.27 263.35 a7.5 7.5 0 1 0 15 0 a7.5 7.5 0 1 0 -15 0zM1309.22 300.85 a7.5 7.5 0 1 0 15 0 a7.5 7.5 0 1 0 -15 0zM1309.22 375.85 a7.5 7.5 0 1 0 15 0 a7.5 7.5 0 1 0 -15 0zM1244.27 413.35 a7.5 7.5 0 1 0 15 0 a7.5 7.5 0 1 0 -15 0zM1179.32 375.85 a7.5 7.5 0 1 0 15 0 a7.5 7.5 0 1 0 -15 0zM1179.32 300.85 a7.5 7.5 0 1 0 15 0 a7.5 7.5 0 1 0 -15 0zM1244.27 488.35 a7.5 7.5 0 1 0 15 0 a7.5 7.5 0 1 0 -15 0zM1309.22 525.85 a7.5 7.5 0 1 0 15 0 a7.5 7.5 0 1 0 -15 0zM1309.22 600.85 a7.5 7.5 0 1 0 15 0 a7.5 7.5 0 1 0 -15 0zM1244.27 638.35 a7.5 7.5 0 1 0 15 0 a7.5 7.5 0 1 0 -15 0zM1309.23 -74.15 a7.5 7.5 0 1 0 15 0 a7.5 7.5 0 1 0 -15 0zM1374.18 -36.65 a7.5 7.5 0 1 0 15 0 a7.5 7.5 0 1 0 -15 0zM1374.18 38.35 a7.5 7.5 0 1 0 15 0 a7.5 7.5 0 1 0 -15 0zM1309.23 75.85 a7.5 7.5 0 1 0 15 0 a7.5 7.5 0 1 0 -15 0zM1244.27 -36.65 a7.5 7.5 0 1 0 15 0 a7.5 7.5 0 1 0 -15 0zM1309.23 150.85 a7.5 7.5 0 1 0 15 0 a7.5 7.5 0 1 0 -15 0zM1374.18 188.35 a7.5 7.5 0 1 0 15 0 a7.5 7.5 0 1 0 -15 0zM1374.18 263.35 a7.5 7.5 0 1 0 15 0 a7.5 7.5 0 1 0 -15 0zM1309.23 300.85 a7.5 7.5 0 1 0 15 0 a7.5 7.5 0 1 0 -15 0zM1439.13 300.85 a7.5 7.5 0 1 0 15 0 a7.5 7.5 0 1 0 -15 0zM1439.13 375.85 a7.5 7.5 0 1 0 15 0 a7.5 7.5 0 1 0 -15 0zM1374.18 413.35 a7.5 7.5 0 1 0 15 0 a7.5 7.5 0 1 0 -15 0zM1309.23 375.85 a7.5 7.5 0 1 0 15 0 a7.5 7.5 0 1 0 -15 0zM1504.09 38.35 a7.5 7.5 0 1 0 15 0 a7.5 7.5 0 1 0 -15 0zM1569.04 75.85 a7.5 7.5 0 1 0 15 0 a7.5 7.5 0 1 0 -15 0zM1569.04 150.85 a7.5 7.5 0 1 0 15 0 a7.5 7.5 0 1 0 -15 0zM1504.09 188.35 a7.5 7.5 0 1 0 15 0 a7.5 7.5 0 1 0 -15 0zM1439.13 150.85 a7.5 7.5 0 1 0 15 0 a7.5 7.5 0 1 0 -15 0zM1439.13 75.85 a7.5 7.5 0 1 0 15 0 a7.5 7.5 0 1 0 -15 0zM1504.09 263.35 a7.5 7.5 0 1 0 15 0 a7.5 7.5 0 1 0 -15 0zM1504.09 413.35 a7.5 7.5 0 1 0 15 0 a7.5 7.5 0 1 0 -15 0zM1504.09 488.35 a7.5 7.5 0 1 0 15 0 a7.5 7.5 0 1 0 -15 0zM1439.13 525.85 a7.5 7.5 0 1 0 15 0 a7.5 7.5 0 1 0 -15 0zM1374.18 488.35 a7.5 7.5 0 1 0 15 0 a7.5 7.5 0 1 0 -15 0zM1569.04 525.85 a7.5 7.5 0 1 0 15 0 a7.5 7.5 0 1 0 -15 0zM1569.04 600.85 a7.5 7.5 0 1 0 15 0 a7.5 7.5 0 1 0 -15 0zM1504.09 638.35 a7.5 7.5 0 1 0 15 0 a7.5 7.5 0 1 0 -15 0zM1439.13 600.85 a7.5 7.5 0 1 0 15 0 a7.5 7.5 0 1 0 -15 0z" fill="#03305d"></path><path d="M145.61 203.27L188.91 228.27L188.91 278.27L145.61 303.27L102.31 278.27L102.31 228.27zM232.21 353.27L275.51 378.27L275.51 428.27L232.21 453.27L188.91 428.27L188.91 378.27zM232.21 503.27L275.51 528.27L275.51 578.27L232.21 603.27L188.91 578.27L188.91 528.27zM405.42 203.27L448.73 228.27L448.73 278.27L405.42 303.27L362.12 278.27L362.12 228.27zM362.12 278.27L405.42 303.27L405.42 353.27L362.12 378.27L318.82 353.27L318.82 303.27zM492.03 503.27L535.33 528.27L535.33 578.27L492.03 603.27L448.73 578.27L448.73 528.27zM621.94 -21.73L665.24 3.27L665.24 53.27L621.94 78.27L578.63 53.27L578.63 3.27zM665.24 203.27L708.54 228.27L708.54 278.27L665.24 303.27L621.94 278.27L621.94 228.27zM621.94 278.27L665.24 303.27L665.24 353.27L621.94 378.27L578.63 353.27L578.63 303.27zM665.24 353.27L708.54 378.27L708.54 428.27L665.24 453.27L621.94 428.27L621.94 378.27zM838.45 353.27L881.75 378.27L881.75 428.27L838.45 453.27L795.15 428.27L795.15 378.27zM881.75 -21.73L925.05 3.27L925.05 53.27L881.75 78.27L838.45 53.27L838.45 3.27zM1054.96 -21.73L1098.26 3.27L1098.26 53.27L1054.96 78.27L1011.66 53.27L1011.66 3.27zM1141.57 -21.73L1184.87 3.27L1184.87 53.27L1141.57 78.27L1098.26 53.27L1098.26 3.27zM1228.17 -21.73L1271.47 3.27L1271.47 53.27L1228.17 78.27L1184.87 53.27L1184.87 3.27zM1358.08 53.27L1401.38 78.27L1401.38 128.27L1358.08 153.27L1314.78 128.27L1314.78 78.27zM1358.08 503.27L1401.38 528.27L1401.38 578.27L1358.08 603.27L1314.78 578.27L1314.78 528.27zM1401.38 128.27L1444.68 153.27L1444.68 203.27L1401.38 228.27L1358.08 203.27L1358.08 153.27z" stroke="rgba(6, 80, 156, 0.93)" stroke-width="2"></path></g><defs><mask id="SvgjsMask1001"><rect width="1440" height="560" fill="#ffffff"></rect></mask></defs></svg>