<svg xmlns="http://www.w3.org/2000/svg" version="1.1" xmlns:xlink="http://www.w3.org/1999/xlink" xmlns:svgjs="http://svgjs.dev/svgjs" width="1440" height="560" preserveAspectRatio="none" viewBox="0 0 1440 560"><g clip-path="url(&quot;#SvgjsClipPath1000&quot;)" fill="none"><rect width="1440" height="560" x="0" y="0" fill="#0e2a47"></rect><circle r="93.335" cx="91.42" cy="75.45" stroke="#365aa3" stroke-opacity="0.25" stroke-width="2"></circle><circle r="93.335" cx="434.92" cy="326.68" stroke="#365aa3" stroke-opacity="0.25" stroke-width="2"></circle><circle r="93.335" cx="669.02" cy="742.14" stroke="#365aa3" stroke-opacity="0.25" stroke-width="2"></circle><circle r="85.23" cx="819.19" cy="243.89" stroke="#365aa3" stroke-opacity="0.25" stroke-width="2"></circle><circle r="117.775" cx="280.2" cy="13.5" stroke="#365aa3" stroke-opacity="0.25" stroke-width="2"></circle><circle r="102.16" cx="824.25" cy="349.58" stroke="#365aa3" stroke-opacity="0.25" stroke-width="2"></circle><circle r="163.82" cx="1135.32" cy="455.28" stroke="#365aa3" stroke-opacity="0.25" stroke-width="2"></circle><circle r="75.75" cx="1034.98" cy="234.58" stroke="#365aa3" stroke-opacity="0.25" stroke-width="2"></circle><circle r="128.915" cx="234.8" cy="280.12" stroke="#365aa3" stroke-opacity="0.25" stroke-width="2"></circle><circle r="123.62" cx="115.72" cy="533.16" stroke="#365aa3" stroke-opacity="0.25" stroke-width="2"></circle><circle r="94.62" cx="1369.14" cy="178.86" stroke="#365aa3" stroke-opacity="0.25" stroke-width="2"></circle><circle r="141.03" cx="495.73" cy="536.61" stroke="#365aa3" stroke-opacity="0.25" stroke-width="2"></circle><circle r="80.645" cx="584.99" cy="93.31" stroke="#365aa3" stroke-opacity="0.25" stroke-width="2"></circle><circle r="84.6" cx="497.56" cy="8.87" stroke="#365aa3" stroke-opacity="0.25" stroke-width="2"></circle><circle r="109.755" cx="1108.45" cy="113.08" stroke="#365aa3" stroke-opacity="0.25" stroke-width="2"></circle><circle r="136.435" cx="675.31" cy="461.99" stroke="#365aa3" stroke-opacity="0.25" stroke-width="2"></circle><circle r="121.135" cx="784.01" cy="298.8" stroke="#365aa3" stroke-opacity="0.25" stroke-width="2"></circle><circle r="109.51" cx="537.69" cy="337.91" stroke="#365aa3" stroke-opacity="0.25" stroke-width="2"></circle><circle r="47.04" cx="1230.25" cy="136.97" stroke="#365aa3" stroke-opacity="0.25" stroke-width="2"></circle><circle r="116.785" cx="1228.87" cy="56.16" stroke="#365aa3" stroke-opacity="0.25" stroke-width="2"></circle><circle r="135.275" cx="604.64" cy="493.15" stroke="#365aa3" stroke-opacity="0.25" stroke-width="2"></circle><circle r="81.23" cx="126.97" cy="533.3" stroke="#365aa3" stroke-opacity="0.25" stroke-width="2"></circle><circle r="75.395" cx="850.77" cy="487.77" stroke="#365aa3" stroke-opacity="0.25" stroke-width="2"></circle><circle r="76.285" cx="857.3" cy="59.82" stroke="#365aa3" stroke-opacity="0.25" stroke-width="2"></circle><circle r="135.23" cx="1024.8" cy="140.67" stroke="#365aa3" stroke-opacity="0.25" stroke-width="2"></circle><circle r="87.67" cx="1184.63" cy="414.14" stroke="#365aa3" stroke-opacity="0.25" stroke-width="2"></circle><circle r="98.61" cx="1123.29" cy="63.35" stroke="#365aa3" stroke-opacity="0.25" stroke-width="2"></circle><circle r="89.015" cx="141.26" cy="30.96" stroke="#365aa3" stroke-opacity="0.25" stroke-width="2"></circle><circle r="183.815" cx="41.88" cy="212.66" stroke="#365aa3" stroke-opacity="0.25" stroke-width="2"></circle><circle r="52.235" cx="457.38" cy="26.42" stroke="#365aa3" stroke-opacity="0.25" stroke-width="2"></circle><circle r="149.575" cx="202.76" cy="246.94" stroke="#365aa3" stroke-opacity="0.25" stroke-width="2"></circle><circle r="130.25" cx="1125.01" cy="148.86" stroke="#365aa3" stroke-opacity="0.25" stroke-width="2"></circle><circle r="65.89" cx="1126.55" cy="499.8" stroke="#365aa3" stroke-opacity="0.25" stroke-width="2"></circle><circle r="177.335" cx="937.28" cy="122.14" stroke="#365aa3" stroke-opacity="0.25" stroke-width="2"></circle><circle r="138.47" cx="693.29" cy="294.35" stroke="#365aa3" stroke-opacity="0.25" stroke-width="2"></circle><circle r="135.47" cx="777.98" cy="174.66" stroke="#365aa3" stroke-opacity="0.25" stroke-width="2"></circle><circle r="55.16" cx="51.34" cy="352.6" stroke="#365aa3" stroke-opacity="0.25" stroke-width="2"></circle><circle r="128.655" cx="519.13" cy="385.12" stroke="#365aa3" stroke-opacity="0.25" stroke-width="2"></circle><circle r="127.81" cx="480.38" cy="390.96" stroke="#365aa3" stroke-opacity="0.25" stroke-width="2"></circle><circle r="49.59" cx="139.81" cy="518.85" stroke="#365aa3" stroke-opacity="0.25" stroke-width="2"></circle></g><defs><clipPath id="SvgjsClipPath1000"><rect width="1440" height="560" x="0" y="0"></rect></clipPath></defs></svg>