<svg xmlns="http://www.w3.org/2000/svg" version="1.1" xmlns:xlink="http://www.w3.org/1999/xlink" xmlns:svgjs="http://svgjs.dev/svgjs" width="1440" height="560" preserveAspectRatio="none" viewBox="0 0 1440 560"><g mask="url(&quot;#SvgjsMask1002&quot;)" fill="none"><rect width="1440" height="560" x="0" y="0" fill="url(&quot;#SvgjsLinearGradient1003&quot;)"></rect><path d="M1440 0L1193.8 0L1440 26.04z" fill="rgba(255, 255, 255, .1)"></path><path d="M1193.8 0L1440 26.04L1440 33.29L943.8 0z" fill="rgba(255, 255, 255, .075)"></path><path d="M943.8 0L1440 33.29L1440 292.58000000000004L756.24 0z" fill="rgba(255, 255, 255, .05)"></path><path d="M756.24 0L1440 292.58000000000004L1440 369.34000000000003L587.29 0z" fill="rgba(255, 255, 255, .025)"></path><path d="M0 560L619.92 560L0 333.95z" fill="rgba(0, 0, 0, .1)"></path><path d="M0 333.95L619.92 560L1003.0699999999999 560L0 289.28999999999996z" fill="rgba(0, 0, 0, .075)"></path><path d="M0 289.28999999999996L1003.0699999999999 560L1274.9499999999998 560L0 209.83999999999997z" fill="rgba(0, 0, 0, .05)"></path><path d="M0 209.83999999999997L1274.9499999999998 560L1355.9699999999998 560L0 72.15999999999997z" fill="rgba(0, 0, 0, .025)"></path></g><defs><mask id="SvgjsMask1002"><rect width="1440" height="560" fill="#ffffff"></rect></mask><linearGradient x1="15.28%" y1="-39.29%" x2="84.72%" y2="139.29%" gradientUnits="userSpaceOnUse" id="SvgjsLinearGradient1003"><stop stop-color="#0e2a47" offset="0"></stop><stop stop-color="#00459e" offset="1"></stop></linearGradient></defs></svg>